<svg xmlns="http://www.w3.org/2000/svg" fill="#fff" viewBox="0 0 141.67 139.54">
  <path d="M71.83 21.46V1a1 1 0 0 0-2 0v20.46h1zM45.77 28.44c.57-.35 1.15-.67 1.73-1L37.26 9.74a1 1 0 0 0-1.73 1zM10.5 34.73a1 1 0 0 0 .36 1.37l17.69 10.26c.32-.58.65-1.16 1-1.73L11.87 34.36a1 1 0 0 0-1.37.37zM106.41 8.52a1 1 0 0 0-1.37.36l-10.8 18.6c.58.32 1.16.65 1.73 1l10.8-18.6a1 1 0 0 0-.36-1.36zM131.78 35.67a1 1 0 0 0-1-1.73l-18.61 10.77c.35.57.67 1.15 1 1.73zM22.5 69.77v-1H1a1 1 0 0 0 0 2h21.53c-.01-.33-.03-.66-.03-1zM140.67 68.77h-21.53v2h21.53a1 1 0 0 0 0-2zM130.8 103.45l-17.68-10.27c-.32.58-.65 1.16-1 1.73l17.68 10.27a1 1 0 0 0 1-1.73zM9.88 103.87a1 1 0 1 0 1 1.73L29.5 94.84c-.35-.57-.67-1.15-1-1.73zM95.9 111.1c-.57.35-1.15.67-1.73 1l10.24 17.7a1 1 0 0 0 1.73-1zM34.89 129.65a1 1 0 1 0 1.73 1l10.8-18.6c-.58-.32-1.16-.65-1.73-1zM69.83 118.08v20.46a1 1 0 0 0 2 0v-20.46h-1zM104.74 51.89a1.5 1.5 0 1 0-1.5-2.6L74.81 65.74a5.66 5.66 0 0 0-7.95 0L46.52 53.91a1.5 1.5 0 0 0-1.52 2.6l20.36 11.82a5.67 5.67 0 1 0 11 0zm-29.4 14.46l-.06-.08zm.39.59zm-9.78 0zm.43-.62v.07zm4.45 6.17a2.67 2.67 0 1 1 2.67-2.67 2.67 2.67 0 0 1-2.67 2.62z"/>
</svg>
