<svg xmlns="http://www.w3.org/2000/svg" fill="#826550" viewBox="0 0 57.68 68.64">
  <path d="M51.6 22.2c.12-1.7.47-3.51.72-5.4.68-5.43 1.6-11.67-.12-16.8H52c-1.36 3.74-1.3 8.35-2.2 12.36a19.72 19.72 0 0 1-3.24 7.56c-.53.69-1.06 1.54-1.92 1.8-.64-3.92-4.28-4.94-7.64-6.36-2.13-.89-4-2-6.12-2.16a10.78 10.78 0 0 0-2 .23 10.62 10.62 0 0 0-2-.23c-2.15.14-4 1.27-6.12 2.16-3.4 1.42-7 2.44-7.68 6.36-.86-.25-1.39-1.11-1.92-1.8a19.72 19.72 0 0 1-3.24-7.56C7 8.35 7 3.74 5.72 0h-.24c-1.72 5.13-.83 11.37-.12 16.8.25 1.89.6 3.7.72 5.4.79 11.05-7 23.12-6 28.92.93 7.53 8.4 9.4 14.16 12.36 4.35 2.24 8.31 5 13.32 5.16h2.56c5-.21 9-2.92 13.32-5.16 5.76-3 13.23-4.83 14.16-12.36.95-5.8-6.79-17.87-6-28.92zm-22.76 3.75a35.92 35.92 0 0 1-7.16-.5c.66-2.05 4-1.56 7.08-1.56h.16c3 0 6.42-.49 7.08 1.56a36 36 0 0 1-7.16.5z"/>
</svg>
