<svg xmlns="http://www.w3.org/2000/svg" fill="#826550" viewBox="0 0 94.16 88.62">
  <path d="M87.19 22.42q-.86 2.6-1.68 5.22a43 43 0 0 1-13 54.17 12.82 12.82 0 0 1 3.14 2.67 47.07 47.07 0 0 0 11.54-62.06zM9.52 70.34h1.34A43.06 43.06 0 0 1 66 8.38a22.28 22.28 0 0 1 2.44-3.26A47.07 47.07 0 0 0 6.23 70.48c1.13-.11 2.25-.14 3.29-.14z"/>
  <path d="M53.45 82c.44-6.14-.87-14 .66-19.07 4.53-.08 9.56.35 13.15-.66 8.17-14.84 12-34 18.42-50.64V9C85 6 81.93 5.34 79.1 4.44h-.66c-10.6 3.43-12 16.1-14.47 27.62-15.79-4.14-32.29-.06-32.88 15.13-4.53.08-8 1.22-9.86 3.95-.57 6.7 1.57 10.7 6.58 11.86q-1.86 8-7.23 12.49c-6.4.61-15.64-1.6-19.07 2v2.63c3.15 3.86 12.85 1.18 19.07 2 6.59-4.01 8.42-12.67 11.83-19.81 4.67.37 10.86-.78 14.47.66V82.7c-7.83.5-15.45 1.21-19.07 5.92h44.72C69.27 83.33 60.05 84 53.45 82zM37.67 47.19C38.35 35.48 53 35.5 63.32 38.64c.1 4.72-.52 10.16 1.31 13.15-7.04-.85-17.07-4.4-26.96-4.6z"/>
</svg>
