<svg xmlns="http://www.w3.org/2000/svg" fill="#826550" viewBox="0 0 51.48 49.48">
  <path d="M50.9 0h-.24c-2.31 7.69-2.93 17.07-9.36 20.64-1.19-3.35-4.11-4.89-7.44-6.36-2.12-.93-4.55-2.56-6.6-2.64a2.19 2.19 0 0 0-1.5.32 2.19 2.19 0 0 0-1.5-.32c-2.05.08-4.48 1.71-6.6 2.64-3.33 1.47-6.25 3-7.44 6.36C3.78 17.12 3.16 7.74.86 0H.62A14.55 14.55 0 0 0 0 2.45c0 1.92.56 21.46 1.94 28.44 1.24 6.29 6.06 10.83 10.8 13.8 3.29 2.07 8.51 4.84 13 4.84s9.73-2.77 13-4.84c4.72-3 9.56-7.51 10.8-13.8C51 23.91 51.5 4.37 51.5 2.45A14.54 14.54 0 0 0 50.9 0zM37 28.1c-.25 1.55-1.66 3.39-3.36 3.48-3 .17-4.51-4.41-7.86-4.38s-4.88 4.55-7.86 4.38c-1.7-.1-3.12-1.93-3.36-3.48a7.59 7.59 0 0 1 1.68-5.64c1.1-1.07 2.82-.93 4.68-1.2a8.6 8.6 0 0 0 4.86-1.95 8.63 8.63 0 0 0 4.86 1.95c1.86.27 3.58.13 4.68 1.2A7.58 7.58 0 0 1 37 28.1z"/>
</svg>
